<?xml version="1.0"?>
<svg xmlns="http://www.w3.org/2000/svg" viewBox="0 0 64 64" width="512" height="512">
  <g id="outline" fill="#f49344">
    <path d="M58,24V23c0-.021-.011-.039-.012-.06a1,1,0,0,0-.054-.266.948.948,0,0,0-.033-.094,1.013,1.013,0,0,0-.189-.281l-.006-.007-13-13A1,1,0,0,0,44,9H40V6a1,1,0,0,0-1-1H34a1,1,0,0,0-1,1V9H19l-.011,0L18.98,9c-.013,0-.025.008-.038.009a.96.96,0,0,0-.307.069.93.93,0,0,0-.09.043.965.965,0,0,0-.234.168c-.013.013-.032.018-.045.032l-12,13,1.468,1.358,11.3-12.236L31,23.414V41H24V29a1,1,0,0,0-1-1H16a1,1,0,0,0-1,1v7h2V30h5V41H21v2H43V41H33V24H58ZM35,7h3v6H35ZM32.414,22l-11-11H33v3a1,1,0,0,0,1,1h5a1,1,0,0,0,1-1V11h3.586l11,11Z"/>
    <path d="M37,28a1,1,0,0,0-1,1v5a1,1,0,0,0,1,1h5a1,1,0,0,0,1-1V29a1,1,0,0,0-1-1Zm4,5H38V30h3Z"/>
    <path d="M47,28a1,1,0,0,0-1,1v5a1,1,0,0,0,1,1h5a1,1,0,0,0,1-1V29a1,1,0,0,0-1-1Zm4,5H48V30h3Z"/>
    <path d="M2,40.111a9.044,9.044,0,0,0,.95,4.026l7.155,14.31,1.79-.894L4.739,43.242A7.044,7.044,0,0,1,4,40.111V28.5a1.5,1.5,0,0,1,3,0V40a.994.994,0,0,0,.241.65l1.264,1.476.018.02,4.718,5.5a1,1,0,0,0,1.518-1.3L10.03,40.832a1.456,1.456,0,0,1,2.212-1.894l5,5.72a1.071,1.071,0,0,0,.152.142A9.043,9.043,0,0,1,21,52v6h2V52a11.057,11.057,0,0,0-4.314-8.735l-4.938-5.643a3.5,3.5,0,0,0-2.731-1.179A3.443,3.443,0,0,0,9,37.188V28.5a3.5,3.5,0,0,0-7,0Z"/>
    <path d="M58.5,25A3.5,3.5,0,0,0,55,28.5v8.688a3.443,3.443,0,0,0-2.017-.745,3.519,3.519,0,0,0-2.731,1.179l-4.938,5.643A11.057,11.057,0,0,0,41,52v6h2V52a9.043,9.043,0,0,1,3.6-7.2,1.071,1.071,0,0,0,.152-.142l5.005-5.72a1.4,1.4,0,0,1,1.15-.5,1.455,1.455,0,0,1,1.062,2.389L49.241,46.35a1,1,0,0,0,1.518,1.3l4.719-5.5.017-.02,1.264-1.476A.994.994,0,0,0,57,40V28.5a1.5,1.5,0,0,1,3,0V40.111a7.044,7.044,0,0,1-.739,3.131L52.105,57.553l1.79.894,7.155-14.31A9.044,9.044,0,0,0,62,40.111V28.5A3.5,3.5,0,0,0,58.5,25Z"/>
  </g>
</svg>
